<svg width="228" height="23" viewBox="0 0 228 23" fill="none" xmlns="http://www.w3.org/2000/svg">
<path d="M16.2733 9.30667C16.2733 8.90222 16.1644 8.52889 15.9467 8.18667C15.7289 7.81333 15.4333 7.53333 15.06 7.34667C14.6867 7.16 14.2978 7.08222 13.8933 7.11333C13.4889 7.14444 13.1156 7.28444 12.7733 7.53333C12.4311 7.78222 12.1822 8.10889 12.0267 8.51333C11.9022 8.88667 11.8711 9.27556 11.9333 9.68C11.9956 10.0844 12.1667 10.4422 12.4467 10.7533C12.7267 11.0333 13.0689 11.2356 13.4733 11.36C13.3178 11.6711 13.1 11.92 12.82 12.1067C12.54 12.2622 12.2289 12.34 11.8867 12.34H10.16C9.47556 12.34 8.88444 12.5733 8.38667 13.04V8.79333C8.94667 8.7 9.38222 8.43556 9.69333 8C10.0356 7.53333 10.1756 7.02 10.1133 6.46C10.0822 5.9 9.84889 5.43333 9.41333 5.06C9.00889 4.68667 8.52667 4.5 7.96667 4.5C7.40667 4.5 6.90889 4.68667 6.47333 5.06C6.06889 5.43333 5.83556 5.9 5.77333 6.46C5.74222 7.02 5.88222 7.53333 6.19333 8C6.53556 8.43556 6.98667 8.7 7.54667 8.79333V14.1133C6.98667 14.2378 6.53556 14.5178 6.19333 14.9533C5.85111 15.3889 5.69556 15.8867 5.72667 16.4467C5.78889 17.0067 6.00667 17.4889 6.38 17.8933C6.78444 18.2667 7.26667 18.4689 7.82667 18.5C8.38667 18.5311 8.88444 18.3756 9.32 18.0333C9.75556 17.6911 10.02 17.24 10.1133 16.68C10.2067 16.12 10.1133 15.6067 9.83333 15.14C9.55333 14.6733 9.13333 14.3622 8.57333 14.2067C8.72889 13.8956 8.94667 13.6622 9.22667 13.5067C9.50667 13.32 9.81778 13.2267 10.16 13.2267H11.8867C12.4467 13.2267 12.9444 13.0711 13.38 12.76C13.8467 12.4178 14.1733 11.9822 14.36 11.4533C14.8889 11.3911 15.34 11.1578 15.7133 10.7533C16.0867 10.3178 16.2733 9.83556 16.2733 9.30667ZM6.66 6.69333C6.66 6.32 6.78444 6.00889 7.03333 5.76C7.28222 5.51111 7.59333 5.38667 7.96667 5.38667C8.34 5.38667 8.65111 5.51111 8.9 5.76C9.14889 6.00889 9.27333 6.32 9.27333 6.69333C9.27333 7.03556 9.14889 7.34667 8.9 7.62667C8.65111 7.87556 8.34 8 7.96667 8C7.59333 8 7.28222 7.87556 7.03333 7.62667C6.78444 7.34667 6.66 7.03556 6.66 6.69333ZM9.27333 16.26C9.27333 16.6333 9.14889 16.9444 8.9 17.1933C8.65111 17.4422 8.34 17.5667 7.96667 17.5667C7.59333 17.5667 7.28222 17.4422 7.03333 17.1933C6.78444 16.9444 6.66 16.6489 6.66 16.3067C6.66 15.9333 6.78444 15.6222 7.03333 15.3733C7.28222 15.0933 7.59333 14.9533 7.96667 14.9533C8.34 14.9533 8.65111 15.0933 8.9 15.3733C9.14889 15.6222 9.27333 15.9178 9.27333 16.26ZM14.08 10.6133C13.7067 10.6133 13.3956 10.4889 13.1467 10.24C12.8978 9.96 12.7733 9.64889 12.7733 9.30667C12.7733 8.93333 12.8978 8.62222 13.1467 8.37333C13.3956 8.12444 13.6911 8 14.0333 8C14.4067 8 14.7178 8.12444 14.9667 8.37333C15.2467 8.62222 15.3867 8.93333 15.3867 9.30667C15.3867 9.64889 15.2467 9.96 14.9667 10.24C14.7178 10.4889 14.4222 10.6133 14.08 10.6133Z" fill="white"/>
<path d="M22.9141 15.5H24.1738V11.5918C24.1738 10.7598 24.7539 10.1094 25.5215 10.1094C26.2715 10.1094 26.752 10.5605 26.752 11.2871V15.5H27.9883V11.4746C27.9883 10.707 28.5215 10.1094 29.3359 10.1094C30.1621 10.1094 30.5723 10.5371 30.5723 11.416V15.5H31.832V11.1113C31.832 9.78711 31.082 9.01367 29.793 9.01367C28.9082 9.01367 28.1758 9.46484 27.8535 10.1504H27.7539C27.4727 9.46484 26.8691 9.01367 25.9961 9.01367C25.1465 9.01367 24.502 9.43555 24.2207 10.1504H24.127V9.13672H22.9141V15.5ZM35.3652 15.6055C36.2031 15.6055 36.9004 15.2422 37.2812 14.5977H37.3809V15.5H38.5938V11.1465C38.5938 9.81055 37.6914 9.01367 36.0918 9.01367C34.6445 9.01367 33.6133 9.71094 33.4844 10.7832H34.7031C34.8438 10.3203 35.3301 10.0566 36.0332 10.0566C36.8945 10.0566 37.3398 10.4492 37.3398 11.1465V11.7031L35.6113 11.8086C34.0938 11.9023 33.2383 12.5645 33.2383 13.707C33.2383 14.8672 34.1348 15.6055 35.3652 15.6055ZM35.6875 14.5918C35.002 14.5918 34.5039 14.2461 34.5039 13.6543C34.5039 13.0742 34.9023 12.7637 35.7812 12.7051L37.3398 12.5996V13.1504C37.3398 13.9707 36.6367 14.5918 35.6875 14.5918ZM41.0371 8C41.4766 8 41.834 7.64258 41.834 7.20898C41.834 6.76953 41.4766 6.41211 41.0371 6.41211C40.5977 6.41211 40.2402 6.76953 40.2402 7.20898C40.2402 7.64258 40.5977 8 41.0371 8ZM40.4102 15.5H41.6641V9.13672H40.4102V15.5ZM43.5156 15.5H44.7754V11.7676C44.7754 10.7422 45.3672 10.1094 46.2988 10.1094C47.2305 10.1094 47.6758 10.625 47.6758 11.6797V15.5H48.9355V11.3809C48.9355 9.86328 48.1504 9.01367 46.7266 9.01367C45.7656 9.01367 45.1328 9.44141 44.8223 10.1445H44.7285V9.13672H43.5156V15.5Z" fill="white"/>
<path d="M67.7733 11.7333L66.7 12.8067L66 12.1533L67.82 10.3333H68.4733L70.34 12.2L69.64 12.8533L68.6133 11.8267C68.7067 12.7911 69.0644 13.6467 69.6867 14.3933C70.34 15.1089 71.1333 15.5756 72.0667 15.7933C73.0311 15.98 73.9489 15.8711 74.82 15.4667C75.7222 15.0622 76.4067 14.4244 76.8733 13.5533L77.5733 14.0667C76.9822 15.0933 76.1422 15.84 75.0533 16.3067C73.9956 16.7733 72.8911 16.8822 71.74 16.6333C70.62 16.3533 69.6867 15.7622 68.94 14.86C68.1933 13.9578 67.8044 12.9156 67.7733 11.7333ZM77.3867 11.3133L76.3133 10.24L75.6133 10.8933L77.4333 12.76H78.1333L79.9533 10.94L79.3 10.2867L78.2267 11.3133C78.1956 10.1622 77.8222 9.13556 77.1067 8.23333C76.3911 7.33111 75.4733 6.74 74.3533 6.46C73.2333 6.14889 72.1289 6.21111 71.04 6.64667C69.9822 7.05111 69.1422 7.75111 68.52 8.74667L69.22 9.26C69.7178 8.42 70.4178 7.81333 71.32 7.44C72.2222 7.06667 73.14 7.00444 74.0733 7.25333C75.0067 7.50222 75.7689 8 76.36 8.74667C76.9822 9.49333 77.3244 10.3489 77.3867 11.3133Z" fill="white"/>
<path d="M87.9023 15.7051C89.8711 15.7051 91.0195 14.082 91.0195 11.2812C91.0195 8.47461 89.8535 6.83984 87.9023 6.83984C85.9395 6.83984 84.7734 8.47461 84.7734 11.2637C84.7734 14.0762 85.9277 15.7051 87.9023 15.7051ZM87.9023 14.6152C86.7539 14.6152 86.0977 13.4434 86.0977 11.2637C86.0977 9.11328 86.7656 7.93555 87.9023 7.93555C89.0391 7.93555 89.6953 9.10156 89.6953 11.2637C89.6953 13.4492 89.0508 14.6152 87.9023 14.6152ZM96.5508 6.89258C96.2227 6.89258 95.9941 7.12109 95.9941 7.46094V12.9688L96.0352 13.959L94.7695 12.5352L93.8965 11.6797C93.7969 11.5742 93.6562 11.5156 93.498 11.5156C93.1934 11.5156 92.9648 11.7441 92.9648 12.0547C92.9648 12.207 93.0234 12.3418 93.1406 12.4648L96.1348 15.4707C96.252 15.5879 96.3984 15.6523 96.5508 15.6523C96.709 15.6523 96.8555 15.5879 96.9727 15.4707L99.9668 12.4648C100.09 12.3418 100.143 12.207 100.143 12.0547C100.143 11.7441 99.9141 11.5156 99.6094 11.5156C99.4512 11.5156 99.3105 11.5742 99.2109 11.6797L98.3379 12.5352L97.0723 13.9531L97.1133 12.9688V7.46094C97.1133 7.12109 96.8848 6.89258 96.5508 6.89258ZM107.543 15.5H108.855V7.04492H107.549L105.322 8.62695V9.91602L107.443 8.39844H107.543V15.5ZM115.16 15.6523C115.494 15.6523 115.723 15.4238 115.723 15.084V9.57617L115.682 8.5918L116.947 10.0098L117.82 10.8652C117.92 10.9707 118.061 11.0293 118.219 11.0293C118.523 11.0293 118.752 10.8008 118.752 10.4902C118.752 10.3379 118.699 10.2031 118.576 10.0801L115.582 7.07422C115.465 6.95703 115.318 6.89258 115.16 6.89258C115.008 6.89258 114.861 6.95703 114.744 7.07422L111.75 10.0801C111.633 10.2031 111.574 10.3379 111.574 10.4902C111.574 10.8008 111.803 11.0293 112.107 11.0293C112.266 11.0293 112.406 10.9707 112.506 10.8652L113.379 10.0098L114.645 8.58594L114.604 9.57617V15.084C114.604 15.4238 114.832 15.6523 115.16 15.6523Z" fill="white"/>
<path d="M134.627 5.38667H135.373L141.113 16.12L140.74 16.7267H129.26L128.887 16.12L134.627 5.38667ZM135 6.50667L130.007 15.8867H139.993L135 6.50667ZM135.56 15V14.1133H134.44V15H135.56ZM134.44 13.2267V9.72667H135.56V13.2267H134.44Z" fill="white"/>
<path d="M149.902 15.7051C151.871 15.7051 153.02 14.082 153.02 11.2812C153.02 8.47461 151.854 6.83984 149.902 6.83984C147.939 6.83984 146.773 8.47461 146.773 11.2637C146.773 14.0762 147.928 15.7051 149.902 15.7051ZM149.902 14.6152C148.754 14.6152 148.098 13.4434 148.098 11.2637C148.098 9.11328 148.766 7.93555 149.902 7.93555C151.039 7.93555 151.695 9.10156 151.695 11.2637C151.695 13.4492 151.051 14.6152 149.902 14.6152Z" fill="white"/>
<path d="M185.513 5.38667C186.198 5.41778 186.851 5.58889 187.473 5.9C188.127 6.21111 188.702 6.61556 189.2 7.11333C190.382 8.38889 190.973 9.88222 190.973 11.5933C190.973 12.9311 190.507 14.2067 189.573 15.42C189.107 15.98 188.578 16.4467 187.987 16.82C187.396 17.1622 186.758 17.3956 186.073 17.52C184.58 17.8 183.227 17.5978 182.013 16.9133C181.391 16.5711 180.847 16.1356 180.38 15.6067C179.913 15.0778 179.556 14.4867 179.307 13.8333C179.058 13.18 178.902 12.4956 178.84 11.78C178.809 11.0644 178.902 10.38 179.12 9.72667C179.587 8.29556 180.411 7.19111 181.593 6.41333C182.153 6.04 182.76 5.76 183.413 5.57333C184.098 5.38667 184.798 5.32444 185.513 5.38667ZM185.98 16.68C187.162 16.4 188.142 15.7778 188.92 14.8133C189.698 13.7556 190.056 12.6511 189.993 11.5C189.993 10.7844 189.853 10.1 189.573 9.44667C189.324 8.79333 188.967 8.21778 188.5 7.72C187.598 6.81778 186.556 6.32 185.373 6.22667C184.782 6.19556 184.191 6.25778 183.6 6.41333C183.009 6.53778 182.48 6.77111 182.013 7.11333C181.018 7.86 180.333 8.84 179.96 10.0533C179.618 11.2667 179.696 12.4333 180.193 13.5533C180.722 14.6733 181.516 15.5289 182.573 16.12C183.071 16.4311 183.616 16.6333 184.207 16.7267C184.798 16.82 185.389 16.8044 185.98 16.68ZM184.907 11.08L187.007 8.88667L187.613 9.49333L185.513 11.6867L187.613 13.88L187.007 14.4867L184.907 12.2933L182.807 14.4867L182.2 13.88L184.3 11.6867L182.2 9.49333L182.807 8.88667L184.907 11.08Z" fill="white"/>
<path d="M199.902 15.7051C201.871 15.7051 203.02 14.082 203.02 11.2812C203.02 8.47461 201.854 6.83984 199.902 6.83984C197.939 6.83984 196.773 8.47461 196.773 11.2637C196.773 14.0762 197.928 15.7051 199.902 15.7051ZM199.902 14.6152C198.754 14.6152 198.098 13.4434 198.098 11.2637C198.098 9.11328 198.766 7.93555 199.902 7.93555C201.039 7.93555 201.695 9.10156 201.695 11.2637C201.695 13.4492 201.051 14.6152 199.902 14.6152Z" fill="white"/>
</svg>
