<svg width="28" height="28" viewBox="0 0 28 28" fill="none" xmlns="http://www.w3.org/2000/svg">
<path d="M0 4C0 1.79086 1.79086 0 4 0H24C26.2091 0 28 1.79086 28 4V24C28 26.2091 26.2091 28 24 28H4C1.79086 28 0 26.2091 0 24V4Z" fill="#A3B3FF"/>
<g clip-path="url(#clip0_26505_1421)">
<path d="M14 15.25C13.6685 15.25 13.3505 15.1183 13.1161 14.8839C12.8817 14.6494 12.75 14.3315 12.75 14C12.75 13.6685 12.8817 13.3505 13.1161 13.1161C13.3505 12.8817 13.6685 12.75 14 12.75C14.3315 12.75 14.6495 12.8817 14.8839 13.1161C15.1183 13.3505 15.25 13.6685 15.25 14C15.25 14.3315 15.1183 14.6494 14.8839 14.8839C14.6495 15.1183 14.3315 15.25 14 15.25ZM13.56 17.745C13.7058 17.92 13.8525 18.09 14 18.2525C14.1475 18.09 14.2942 17.9208 14.44 17.745C14.1467 17.7512 13.8533 17.7512 13.56 17.745ZM11.8975 17.6408C11.2576 17.5742 10.6218 17.4718 9.99333 17.3341C9.93083 17.6258 9.88333 17.9091 9.85167 18.1808C9.69333 19.5 9.91417 20.3016 10.25 20.495C10.5858 20.6891 11.39 20.4791 12.4542 19.6833C12.6733 19.5191 12.8942 19.3366 13.1158 19.1375C12.6821 18.6617 12.2753 18.1621 11.8975 17.6408ZM18.0067 17.3341C17.4092 17.4675 16.7708 17.5708 16.1025 17.6408C15.7247 18.1621 15.3179 18.6617 14.8842 19.1375C15.1058 19.3375 15.3267 19.5191 15.5458 19.6833C16.61 20.4791 17.4142 20.6891 17.75 20.495C18.0858 20.3016 18.3058 19.5 18.1492 18.1808C18.1148 17.8966 18.0675 17.6141 18.0075 17.3341H18.0067ZM19.215 17.0116C19.6958 19.2108 19.4433 20.9616 18.375 21.5783C17.3067 22.195 15.6642 21.5383 14 20.0225C12.3358 21.5383 10.6933 22.1941 9.625 21.5775C8.55667 20.9608 8.30417 19.2108 8.78417 17.0108C6.63917 16.3283 5.25 15.2333 5.25 14C5.25 12.7666 6.63917 11.6725 8.78417 10.9883C8.30417 8.78915 8.55667 7.03832 9.625 6.42165C10.6933 5.80498 12.3358 6.46165 14 7.97748C15.6642 6.46165 17.3067 5.80582 18.375 6.42248C19.4433 7.03915 19.6958 8.78915 19.2158 10.9891C21.3608 11.6716 22.75 12.7666 22.75 14C22.75 15.2333 21.3608 16.3275 19.2158 17.0116H19.215ZM13.115 8.86248C12.9031 8.67065 12.6826 8.48852 12.4542 8.31665C11.39 7.52082 10.5858 7.31082 10.25 7.50498C9.91417 7.69832 9.69417 8.49998 9.85083 9.81915C9.88417 10.0916 9.93083 10.3741 9.9925 10.6658C10.6213 10.5281 11.2573 10.4257 11.8975 10.3591C12.2933 9.81498 12.7017 9.31415 13.1158 8.86248H13.115ZM16.1025 10.3591C16.7708 10.4291 17.4092 10.5333 18.0067 10.6658C18.0692 10.3741 18.1167 10.0908 18.1483 9.81915C18.3067 8.49998 18.0858 7.69832 17.75 7.50498C17.4142 7.31082 16.61 7.52082 15.5458 8.31665C15.3171 8.4885 15.0964 8.67063 14.8842 8.86248C15.2983 9.31415 15.7067 9.81498 16.1025 10.3591ZM14.44 10.255C14.2942 10.08 14.1475 9.90998 14 9.74748C13.8525 9.90998 13.7058 10.0791 13.56 10.255C13.8533 10.2488 14.1467 10.2488 14.44 10.255ZM10.9767 16.2533C10.8246 16.0026 10.6779 15.7486 10.5367 15.4916C10.4575 15.7058 10.3842 15.9166 10.3175 16.1258C10.5317 16.1725 10.7517 16.215 10.9758 16.2533H10.9767ZM12.5867 16.4483C13.5276 16.5182 14.4724 16.5182 15.4133 16.4483C15.9443 15.6683 16.4167 14.8499 16.8267 14C16.4167 13.15 15.9443 12.3317 15.4133 11.5516C14.4724 11.4818 13.5276 11.4818 12.5867 11.5516C12.0557 12.3317 11.5833 13.15 11.1733 14C11.5833 14.8499 12.0557 15.6683 12.5867 16.4483ZM17.4633 12.5083C17.5425 12.2941 17.6158 12.0833 17.6825 11.8741C17.464 11.8267 17.2445 11.7842 17.0242 11.7466C17.1759 11.9974 17.3223 12.2514 17.4633 12.5083ZM9.10833 12.1975C8.825 12.2891 8.55667 12.3891 8.305 12.4975C7.08417 13.0208 6.5 13.6125 6.5 14C6.5 14.3875 7.08333 14.9791 8.305 15.5025C8.55667 15.6108 8.825 15.7108 9.10833 15.8025C9.29333 15.2191 9.5225 14.6141 9.79583 14C9.53319 13.4125 9.30366 12.8107 9.10833 12.1975ZM10.3167 11.8741C10.3842 12.0825 10.4575 12.2941 10.5367 12.5075C10.6779 12.2508 10.8246 11.9971 10.9767 11.7466C10.7517 11.785 10.5317 11.8275 10.3175 11.8741H10.3167ZM18.8917 15.8025C19.175 15.7108 19.4433 15.6108 19.695 15.5025C20.9158 14.9791 21.5 14.3875 21.5 14C21.5 13.6125 20.9167 13.0208 19.695 12.4975C19.4319 12.3854 19.1638 12.2853 18.8917 12.1975C18.7067 12.7808 18.4775 13.3858 18.2042 14C18.4775 14.6141 18.7067 15.2183 18.8917 15.8025ZM17.6833 16.1258C17.6158 15.9175 17.5425 15.7058 17.4633 15.4925C17.3221 15.7492 17.1754 16.0028 17.0233 16.2533C17.2483 16.215 17.4683 16.1725 17.6825 16.1258H17.6833Z" fill="#0F172B"/>
</g>
<defs>
<clipPath id="clip0_26505_1421">
<rect width="20" height="20" fill="white" transform="translate(4 4)"/>
</clipPath>
</defs>
</svg>
