<svg width="22" height="23" viewBox="0 0 22 23" fill="none" xmlns="http://www.w3.org/2000/svg">
<path d="M7 11.5C7 11.7844 6.89333 12.0333 6.68 12.2467C6.50222 12.4244 6.27111 12.5133 5.98667 12.5133C5.70222 12.5133 5.47111 12.4244 5.29333 12.2467C5.11556 12.0333 5.02667 11.7844 5.02667 11.5C5.02667 11.2156 5.11556 10.9844 5.29333 10.8067C5.47111 10.5933 5.70222 10.4867 5.98667 10.4867C6.27111 10.4867 6.50222 10.5933 6.68 10.8067C6.89333 10.9844 7 11.2156 7 11.5ZM12.0133 11.5C12.0133 11.7844 11.9067 12.0333 11.6933 12.2467C11.5156 12.4244 11.2844 12.5133 11 12.5133C10.7156 12.5133 10.4667 12.4244 10.2533 12.2467C10.0756 12.0333 9.98667 11.7844 9.98667 11.5C9.98667 11.2156 10.0756 10.9844 10.2533 10.8067C10.4667 10.5933 10.7156 10.4867 11 10.4867C11.2844 10.4867 11.5156 10.5933 11.6933 10.8067C11.9067 10.9844 12.0133 11.2156 12.0133 11.5ZM17.0267 11.5C17.0267 11.7844 16.92 12.0333 16.7067 12.2467C16.5289 12.4244 16.2978 12.5133 16.0133 12.5133C15.7289 12.5133 15.48 12.4244 15.2667 12.2467C15.0889 12.0333 15 11.7844 15 11.5C15 11.2156 15.0889 10.9844 15.2667 10.8067C15.48 10.5933 15.7289 10.4867 16.0133 10.4867C16.2978 10.4867 16.5289 10.5933 16.7067 10.8067C16.92 10.9844 17.0267 11.2156 17.0267 11.5Z" fill="#CCCCCC"/>
</svg>
