<svg width="48" height="48" viewBox="0 0 48 48" fill="none" xmlns="http://www.w3.org/2000/svg">
<path d="M31.84 20.72L36 21.6V26.4L31.84 27.28L34.24 30.8L30.8 34.16L27.28 31.84L26.4 36H21.6L20.72 31.84L17.2 34.24L13.84 30.8L16.16 27.28L12 26.4V21.6L16.16 20.72L13.84 17.2L17.2 13.76L20.72 16.16L21.6 12H26.4L27.28 16.16L30.8 13.76L34.24 17.2L31.84 20.72ZM30.32 25.84L34.32 25.04V23.04L30.32 22.16L29.76 20.88L32 17.44L30.64 16L27.2 18.32L25.84 17.76L25.04 13.76H23.04L22.24 17.76L20.96 18.32L17.52 16L16.08 17.44L18.4 20.88L17.84 22.16L13.84 23.04V25.04L17.84 25.84L18.4 27.12L16.08 30.56L17.52 32L20.96 29.68L22.24 30.24L23.04 34.24H25.04L25.84 30.24L27.2 29.68L30.64 32L32 30.56L29.76 27.12L30.32 25.84ZM22.08 21.12C22.6667 20.7467 23.3067 20.56 24 20.56C24.96 20.56 25.76 20.9067 26.4 21.6C27.0933 22.24 27.44 23.04 27.44 24C27.44 24.8 27.1733 25.52 26.64 26.16C26.1067 26.8 25.44 27.2 24.64 27.36C23.84 27.52 23.0667 27.4133 22.32 27.04C21.6267 26.6667 21.12 26.1067 20.8 25.36C20.5333 24.56 20.5067 23.7867 20.72 23.04C20.9333 22.24 21.3867 21.6 22.08 21.12ZM23.04 25.44C23.36 25.6 23.68 25.68 24 25.68C24.48 25.68 24.88 25.52 25.2 25.2C25.52 24.88 25.68 24.5067 25.68 24.08C25.68 23.6 25.5467 23.2267 25.28 22.96C25.0667 22.64 24.7467 22.4533 24.32 22.4C23.9467 22.2933 23.5733 22.3467 23.2 22.56C22.8267 22.72 22.56 22.9867 22.4 23.36C22.24 23.7333 22.2133 24.1333 22.32 24.56C22.48 24.9333 22.72 25.2267 23.04 25.44Z" fill="#808080"/>
</svg>
