<svg width="28" height="28" viewBox="0 0 28 28" fill="none" xmlns="http://www.w3.org/2000/svg">
<path d="M0 4C0 1.79086 1.79086 0 4 0H24C26.2091 0 28 1.79086 28 4V24C28 26.2091 26.2091 28 24 28H4C1.79086 28 0 26.2091 0 24V4Z" fill="#FFB86A"/>
<g clip-path="url(#clip0_26505_1423)">
<path d="M14 19.1484L17.85 18.1017L18.3692 12.4534H11.5217L11.3517 10.575H18.54L18.7292 8.73252H9.27083L9.80083 14.2975H16.3175L16.1 16.6859L14 17.2417L11.9 16.6859L11.7683 15.1492H9.87667L10.1508 18.1025L14 19.1484ZM6.5 5.66669H21.5L20.1475 20.6667L14 22.3334L7.8525 20.6667L6.5 5.66669Z" fill="#0F172B"/>
</g>
<defs>
<clipPath id="clip0_26505_1423">
<rect width="20" height="20" fill="white" transform="translate(4 4)"/>
</clipPath>
</defs>
</svg>
