<svg width="22" height="23" viewBox="0 0 22 23" fill="none" xmlns="http://www.w3.org/2000/svg">
<path d="M10.4133 16.5133L9.13333 15.2333L9.77333 14.54L11.9067 16.6733V17.3667L9.77333 19.5L9.08 18.7533L10.36 17.4733H8.49333C7.81778 17.5089 7.23111 17.2778 6.73333 16.78C6.23556 16.2822 5.98667 15.6956 5.98667 15.02V9.47333C5.48889 9.36667 5.06222 9.13556 4.70667 8.78C4.35111 8.42444 4.12 7.99778 4.01333 7.5C3.94222 7.00222 3.99556 6.52222 4.17333 6.06C4.38667 5.59778 4.68889 5.22444 5.08 4.94C5.50667 4.65556 5.98667 4.51333 6.52 4.51333C6.84 4.51333 7.16 4.56667 7.48 4.67333C8.12 4.95778 8.58222 5.42 8.86667 6.06C8.97333 6.38 9.02667 6.7 9.02667 7.02C9.02667 7.62444 8.83111 8.15778 8.44 8.62C8.08444 9.08222 7.62222 9.36667 7.05333 9.47333V14.9667C7.05333 15.3933 7.19556 15.7667 7.48 16.0867C7.76444 16.3711 8.12 16.5133 8.54667 16.5133H10.4133ZM5.72 8.24667C6.00444 8.42444 6.32444 8.49556 6.68 8.46C7.03556 8.42444 7.33778 8.28222 7.58667 8.03333C7.83556 7.78444 7.97778 7.48222 8.01333 7.12667C8.04889 6.77111 7.97778 6.46889 7.8 6.22C7.62222 5.93556 7.39111 5.74 7.10667 5.63333C6.82222 5.49111 6.53778 5.45556 6.25333 5.52667C5.96889 5.56222 5.70222 5.70444 5.45333 5.95333C5.24 6.16667 5.09778 6.41556 5.02667 6.7C4.99111 6.98444 5.02667 7.26889 5.13333 7.55333C5.27556 7.83778 5.47111 8.06889 5.72 8.24667ZM16.0133 14.54C16.5111 14.6467 16.9378 14.8778 17.2933 15.2333C17.72 15.66 17.9511 16.1756 17.9867 16.78C18.0578 17.3489 17.9333 17.8822 17.6133 18.38C17.3289 18.8067 16.9556 19.1267 16.4933 19.34C16.0311 19.5178 15.5511 19.5533 15.0533 19.4467C14.5556 19.34 14.1289 19.1089 13.7733 18.7533C13.4178 18.3978 13.1867 17.9711 13.08 17.4733C12.9733 16.9756 13.0089 16.4956 13.1867 16.0333C13.4 15.5711 13.72 15.1978 14.1467 14.9133C14.4311 14.7356 14.7333 14.6111 15.0533 14.54V8.99333C15.0533 8.56667 14.8933 8.21111 14.5733 7.92667C14.2889 7.64222 13.9511 7.5 13.56 7.5H11.6933L12.9733 8.78L12.2267 9.47333L10.0933 7.34V6.64667L12.2267 4.51333L12.9733 5.20667L11.6933 6.48667H13.56C14.2356 6.48667 14.8222 6.73556 15.32 7.23333C15.8178 7.69556 16.0489 8.28222 16.0133 8.99333V14.54ZM15.6933 18.4867C15.9422 18.4511 16.1733 18.3622 16.3867 18.22C16.6 18.0778 16.76 17.8822 16.8667 17.6333C17.0089 17.3844 17.0622 17.1356 17.0267 16.8867C17.0267 16.6378 16.9378 16.3889 16.76 16.14C16.6178 15.8911 16.4044 15.7133 16.12 15.6067C15.8356 15.5 15.5333 15.4822 15.2133 15.5533C14.9289 15.5889 14.68 15.7133 14.4667 15.9267C14.2533 16.14 14.1111 16.4067 14.04 16.7267C14.0044 17.0111 14.04 17.2956 14.1467 17.58C14.2889 17.8644 14.5022 18.0956 14.7867 18.2733C15.0711 18.4511 15.3733 18.5222 15.6933 18.4867Z" fill="#CCCCCC"/>
</svg>
