<svg width="48" height="48" viewBox="0 0 48 48" fill="none" xmlns="http://www.w3.org/2000/svg">
<path d="M22.96 25.52L21.6 26.8C21.3867 26 20.9333 25.3333 20.24 24.8C19.6 24.2667 18.8533 24 18 24C17.1467 24 16.3733 24.2667 15.68 24.8C15.04 25.3333 14.6133 26 14.4 26.8L13.04 25.52L12 26.56L13.76 28.24L13.52 28.48V30H12V31.52H13.52V31.6C13.5733 32.08 13.7067 32.56 13.92 33.04L12 34.96L13.04 36L14.72 34.32C15.0933 34.8533 15.5733 35.28 16.16 35.6C16.7467 35.8667 17.36 36 18 36C18.64 36 19.2533 35.8667 19.84 35.6C20.4267 35.28 20.9067 34.8533 21.28 34.32L22.96 36L24 34.96L22.08 32.96C22.2933 32.5333 22.4267 32.0533 22.48 31.52V31.44H24V30H22.48V28.48L22.32 28.24L24 26.56L22.96 25.52ZM18 25.52C18.64 25.52 19.1733 25.7333 19.6 26.16C20.0267 26.5867 20.24 27.12 20.24 27.76H15.76C15.76 27.12 15.9733 26.5867 16.4 26.16C16.8267 25.7333 17.36 25.52 18 25.52ZM21.04 31.52C20.9333 32.32 20.5867 33.0133 20 33.6C19.4667 34.1333 18.8 34.4267 18 34.48C17.2 34.4267 16.5067 34.1333 15.92 33.6C15.3867 33.0133 15.0933 32.32 15.04 31.52V29.28H21.04V31.52ZM35.76 21.6V22.88L25.52 29.36V27.6L34 22.24L21.04 14V23.44C20.56 23.12 20.0533 22.88 19.52 22.72V12.64L20.64 12L35.76 21.6Z" fill="#808080"/>
</svg>
