<svg width="48" height="48" viewBox="0 0 48 48" fill="none" xmlns="http://www.w3.org/2000/svg">
<path d="M36 24C36 21.8133 35.4667 19.8133 34.4 18C33.3333 16.1333 31.8667 14.6667 30 13.6C28.1867 12.5333 26.1867 12 24 12C21.8133 12 19.7867 12.5333 17.92 13.6C16.1067 14.6667 14.6667 16.1333 13.6 18C12.5333 19.8133 12 21.8133 12 24C12 25.76 12.3733 27.44 13.12 29.04C13.8667 30.64 14.9067 32 16.24 33.12L17.28 33.92C19.3067 35.3067 21.5467 36 24 36C26.4533 36 28.6933 35.3067 30.72 33.92L31.84 33.12C33.12 32 34.1333 30.64 34.88 29.04C35.6267 27.44 36 25.76 36 24ZM24 34.48C21.8133 34.48 19.8133 33.84 18 32.56L18.08 32C18.24 31.4667 18.4533 30.9867 18.72 30.56C18.9867 30.08 19.3067 29.6533 19.68 29.28C20.0533 28.9067 20.4533 28.5867 20.88 28.32C21.3067 28.0533 21.7867 27.8667 22.32 27.76C22.9067 27.6 23.4667 27.52 24 27.52C24.8 27.52 25.5733 27.68 26.32 28C27.12 28.2667 27.7867 28.6933 28.32 29.28C28.9067 29.8133 29.36 30.4533 29.68 31.2C29.84 31.6267 29.9733 32.08 30.08 32.56C28.2667 33.84 26.24 34.48 24 34.48ZM20.32 23.36C20.1067 22.88 20 22.3733 20 21.84C20 21.3067 20.1067 20.8 20.32 20.32C20.5333 19.84 20.8 19.44 21.12 19.12C21.4933 18.7467 21.92 18.4533 22.4 18.24C22.88 17.9733 23.4133 17.84 24 17.84C24.5867 17.84 25.0933 17.9467 25.52 18.16C26 18.3733 26.4267 18.6667 26.8 19.04C27.1733 19.4133 27.4667 19.84 27.68 20.32C27.8933 20.8 28 21.3333 28 21.92C28 22.4533 27.8933 22.96 27.68 23.44C27.4667 23.8667 27.1733 24.2667 26.8 24.64C26.4267 25.0133 26 25.3067 25.52 25.52C24.5067 25.9467 23.4667 25.9467 22.4 25.52C21.9733 25.3067 21.5733 25.0133 21.2 24.64C20.8267 24.2667 20.5333 23.84 20.32 23.36ZM31.44 31.36C31.44 31.36 31.44 31.3333 31.44 31.28V31.2C31.2267 30.4533 30.88 29.76 30.4 29.12C29.9733 28.48 29.44 27.92 28.8 27.44C28.32 27.0667 27.7867 26.7467 27.2 26.48C27.4667 26.32 27.7067 26.1333 27.92 25.92C28.2933 25.5467 28.6133 25.1467 28.88 24.72C29.4133 23.8667 29.6533 22.9067 29.6 21.84C29.6533 21.0933 29.52 20.3733 29.2 19.68C28.9333 18.9867 28.5333 18.3733 28 17.84C27.4667 17.3067 26.8533 16.9067 26.16 16.64C25.4667 16.3733 24.72 16.24 23.92 16.24C23.1733 16.24 22.4533 16.3733 21.76 16.64C21.0667 16.9067 20.4533 17.3067 19.92 17.84C19.44 18.3733 19.04 18.9867 18.72 19.68C18.4533 20.3733 18.32 21.0933 18.32 21.84C18.32 22.3733 18.4 22.9067 18.56 23.44C18.72 23.92 18.9067 24.3467 19.12 24.72C19.3333 25.0933 19.6533 25.4933 20.08 25.92C20.2933 26.1333 20.5333 26.3467 20.8 26.56C20.2667 26.7733 19.76 27.0667 19.28 27.44C18.64 27.92 18.08 28.48 17.6 29.12C17.1733 29.76 16.8267 30.48 16.56 31.28V31.36C15.6 30.4 14.8533 29.28 14.32 28C13.7867 26.72 13.52 25.3867 13.52 24C13.52 22.08 13.9733 20.32 14.88 18.72C15.84 17.12 17.12 15.8667 18.72 14.96C20.32 14 22.08 13.52 24 13.52C25.92 13.52 27.68 14 29.28 14.96C30.88 15.8667 32.1333 17.12 33.04 18.72C34 20.32 34.48 22.08 34.48 24C34.48 25.3867 34.2133 26.72 33.68 28C33.2 29.28 32.4533 30.4 31.44 31.36Z" fill="#808080"/>
</svg>
