<svg width="48" height="48" viewBox="0 0 48 48" fill="none" xmlns="http://www.w3.org/2000/svg">
<path d="M33.04 20.24C33.04 19.5467 32.8533 18.9067 32.48 18.32C32.1067 17.68 31.6 17.2 30.96 16.88C30.32 16.56 29.6533 16.4267 28.96 16.48C28.2667 16.5333 27.6267 16.7733 27.04 17.2C26.4533 17.6267 26.0267 18.1867 25.76 18.88C25.5467 19.52 25.4933 20.1867 25.6 20.88C25.7067 21.5733 26 22.1867 26.48 22.72C26.96 23.2 27.5467 23.5467 28.24 23.76C27.9733 24.2933 27.6 24.72 27.12 25.04C26.64 25.3067 26.1067 25.44 25.52 25.44H22.56C21.3867 25.44 20.3733 25.84 19.52 26.64V19.36C20.48 19.2 21.2267 18.7467 21.76 18C22.3467 17.2 22.5867 16.32 22.48 15.36C22.4267 14.4 22.0267 13.6 21.28 12.96C20.5867 12.32 19.76 12 18.8 12C17.84 12 16.9867 12.32 16.24 12.96C15.5467 13.6 15.1467 14.4 15.04 15.36C14.9867 16.32 15.2267 17.2 15.76 18C16.3467 18.7467 17.12 19.2 18.08 19.36V28.48C17.12 28.6933 16.3467 29.1733 15.76 29.92C15.1733 30.6667 14.9067 31.52 14.96 32.48C15.0667 33.44 15.44 34.2667 16.08 34.96C16.7733 35.6 17.6 35.9467 18.56 36C19.52 36.0533 20.3733 35.7867 21.12 35.2C21.8667 34.6133 22.32 33.84 22.48 32.88C22.64 31.92 22.48 31.04 22 30.24C21.52 29.44 20.8 28.9067 19.84 28.64C20.1067 28.1067 20.48 27.7067 20.96 27.44C21.44 27.12 21.9733 26.96 22.56 26.96H25.52C26.48 26.96 27.3333 26.6933 28.08 26.16C28.88 25.5733 29.44 24.8267 29.76 23.92C30.6667 23.8133 31.44 23.4133 32.08 22.72C32.72 21.9733 33.04 21.1467 33.04 20.24ZM16.56 15.76C16.56 15.12 16.7733 14.5867 17.2 14.16C17.6267 13.7333 18.16 13.52 18.8 13.52C19.44 13.52 19.9733 13.7333 20.4 14.16C20.8267 14.5867 21.04 15.12 21.04 15.76C21.04 16.3467 20.8267 16.88 20.4 17.36C19.9733 17.7867 19.44 18 18.8 18C18.16 18 17.6267 17.7867 17.2 17.36C16.7733 16.88 16.56 16.3467 16.56 15.76ZM21.04 32.16C21.04 32.8 20.8267 33.3333 20.4 33.76C19.9733 34.1867 19.44 34.4 18.8 34.4C18.16 34.4 17.6267 34.1867 17.2 33.76C16.7733 33.3333 16.56 32.8267 16.56 32.24C16.56 31.6 16.7733 31.0667 17.2 30.64C17.6267 30.16 18.16 29.92 18.8 29.92C19.44 29.92 19.9733 30.16 20.4 30.64C20.8267 31.0667 21.04 31.5733 21.04 32.16ZM29.28 22.48C28.64 22.48 28.1067 22.2667 27.68 21.84C27.2533 21.36 27.04 20.8267 27.04 20.24C27.04 19.6 27.2533 19.0667 27.68 18.64C28.1067 18.2133 28.6133 18 29.2 18C29.84 18 30.3733 18.2133 30.8 18.64C31.28 19.0667 31.52 19.6 31.52 20.24C31.52 20.8267 31.28 21.36 30.8 21.84C30.3733 22.2667 29.8667 22.48 29.28 22.48Z" fill="#808080"/>
</svg>
