<svg width="48" height="48" viewBox="0 0 48 48" fill="none" xmlns="http://www.w3.org/2000/svg">
<path d="M27.28 12C25.6267 12 24.1067 12.4533 22.72 13.36C21.3867 14.2133 20.3733 15.3867 19.68 16.88C19.04 18.3733 18.8267 19.92 19.04 21.52C19.3067 23.12 19.9733 24.5067 21.04 25.68L13.04 34.88L14.16 35.84L22.16 26.72C23.6 27.84 25.2 28.4267 26.96 28.48C28.7733 28.5333 30.4267 28.0533 31.92 27.04C33.4133 26.0267 34.4533 24.6667 35.04 22.96C35.6267 21.2533 35.6533 19.5467 35.12 17.84C34.5867 16.08 33.5733 14.6667 32.08 13.6C30.64 12.5333 29.04 12 27.28 12ZM27.28 26.96C26.0533 26.96 24.9067 26.6667 23.84 26.08C22.8267 25.4933 22 24.6933 21.36 23.68C20.7733 22.6133 20.48 21.4667 20.48 20.24C20.48 19.0133 20.7733 17.8933 21.36 16.88C22 15.8133 22.8267 14.9867 23.84 14.4C24.9067 13.8133 26.0533 13.52 27.28 13.52C28.5067 13.52 29.6267 13.8133 30.64 14.4C31.6533 14.9867 32.4533 15.8133 33.04 16.88C33.68 17.8933 34 19.0133 34 20.24C34 21.4667 33.68 22.6133 33.04 23.68C32.4533 24.6933 31.6533 25.52 30.64 26.16C29.6267 26.7467 28.5067 27.04 27.28 27.04V26.96Z" fill="#808080"/>
</svg>
