<svg width="298" height="23" viewBox="0 0 298 23" fill="none" xmlns="http://www.w3.org/2000/svg">
<path d="M10.334 13.8574H6.37305V6.54492H5.06055V15H10.334V13.8574ZM11.8516 15H13.1113V11.2676C13.1113 10.2422 13.7031 9.60938 14.6348 9.60938C15.5664 9.60938 16.0117 10.125 16.0117 11.1797V15H17.2715V10.8809C17.2715 9.36328 16.4863 8.51367 15.0625 8.51367C14.1016 8.51367 13.4688 8.94141 13.1582 9.64453H13.0645V8.63672H11.8516V15ZM24.3555 15H25.668V6.54492H24.3613L22.1348 8.12695V9.41602L24.2559 7.89844H24.3555V15ZM28.4863 15H29.8633L33.543 7.68164V6.54492H27.7832V7.65234H32.2129V7.74609L28.4863 15ZM34.4688 17.1973L35.4414 13.7578H34.123L33.5781 17.1973H34.4688ZM44.3418 15.2051C46.2285 15.2051 47.6172 14.1211 47.8516 12.4746H46.5449C46.3105 13.4355 45.4609 14.0391 44.3418 14.0391C42.8184 14.0391 41.8691 12.7852 41.8691 10.7754C41.8691 8.76562 42.8184 7.50586 44.3359 7.50586C45.4492 7.50586 46.2988 8.17383 46.5449 9.22266H47.8516C47.6406 7.5293 46.1992 6.33984 44.3359 6.33984C41.9863 6.33984 40.5273 8.03906 40.5273 10.7754C40.5273 13.5059 41.9922 15.2051 44.3418 15.2051ZM52.1289 15.123C53.9922 15.123 55.1348 13.875 55.1348 11.8184C55.1348 9.76172 53.9863 8.51367 52.1289 8.51367C50.2656 8.51367 49.1172 9.76758 49.1172 11.8184C49.1172 13.875 50.2598 15.123 52.1289 15.123ZM52.1289 14.0508C51.0332 14.0508 50.418 13.2363 50.418 11.8184C50.418 10.4004 51.0332 9.58008 52.1289 9.58008C53.2188 9.58008 53.8398 10.4004 53.8398 11.8184C53.8398 13.2305 53.2188 14.0508 52.1289 14.0508ZM56.7109 15H57.9707V6.14062H56.7109V15ZM65.0137 11.1738H66.0684C67.1699 11.1738 67.8496 11.7363 67.8496 12.6387C67.8496 13.5176 67.123 14.1035 66.0859 14.1035C65.0605 14.1035 64.3516 13.5703 64.2754 12.7383H63.0156C63.0859 14.2266 64.3164 15.2051 66.1035 15.2051C67.8672 15.2051 69.1973 14.1504 69.1973 12.709C69.1973 11.5488 68.4707 10.7988 67.3457 10.6289V10.5293C68.2305 10.2832 68.8691 9.60938 68.875 8.58984C68.8809 7.38867 67.8906 6.33984 66.1445 6.33984C64.3633 6.33984 63.2617 7.36523 63.1738 8.80078H64.416C64.4922 7.91602 65.1074 7.41797 66.0684 7.41797C67.0176 7.41797 67.5801 8.00977 67.5801 8.75391C67.5801 9.56836 66.9473 10.1426 66.0332 10.1426H65.0137V11.1738Z" fill="white"/>
<path d="M94.3613 6.54492H93.0488V12.0879C93.0488 13.916 94.3555 15.2051 96.4707 15.2051C98.5977 15.2051 99.8984 13.916 99.8984 12.0879V6.54492H98.5859V11.9824C98.5859 13.1895 97.8184 14.0391 96.4707 14.0391C95.1289 14.0391 94.3613 13.1895 94.3613 11.9824V6.54492ZM105.471 15V7.67578H108.125V6.54492H101.498V7.67578H104.158V15H105.471ZM111.049 15V11.4609H114.682V10.3535H111.049V7.67578H115.016V6.54492H109.736V15H111.049ZM120.441 12.1758V11.0098H116.598V12.1758H120.441ZM125.328 15.2051C127.209 15.2051 128.51 14.1914 128.51 12.7324C128.51 11.6426 127.795 10.7871 126.711 10.582V10.4824C127.602 10.2539 128.164 9.5332 128.164 8.61328C128.164 7.2832 126.986 6.33984 125.328 6.33984C123.67 6.33984 122.492 7.2832 122.492 8.61328C122.492 9.52734 123.066 10.2598 123.945 10.4824V10.582C122.861 10.7988 122.152 11.6543 122.152 12.7383C122.152 14.1973 123.447 15.2051 125.328 15.2051ZM125.328 10.0781C124.408 10.0781 123.787 9.53906 123.787 8.73633C123.787 7.92188 124.402 7.37695 125.328 7.37695C126.254 7.37695 126.875 7.92188 126.875 8.73633C126.875 9.53906 126.248 10.0781 125.328 10.0781ZM125.328 14.1621C124.244 14.1621 123.494 13.5352 123.494 12.6328C123.494 11.7305 124.244 11.1094 125.328 11.1094C126.412 11.1094 127.162 11.7305 127.162 12.6328C127.162 13.5352 126.412 14.1621 125.328 14.1621Z" fill="white"/>
<path d="M142.334 13.8574H138.373V6.54492H137.061V15H142.334V13.8574ZM145.311 15V11.4609H148.943V10.3535H145.311V7.67578H149.277V6.54492H143.998V15H145.311Z" fill="white"/>
<path d="M184.351 7.27273H185.663V13.4602C185.663 14.0199 185.553 14.4986 185.331 14.8963C185.112 15.294 184.804 15.598 184.406 15.8082C184.009 16.0156 183.543 16.1193 183.009 16.1193C182.517 16.1193 182.075 16.0298 181.683 15.8509C181.294 15.6719 180.986 15.4119 180.759 15.071C180.534 14.7273 180.422 14.3097 180.422 13.8182H181.73C181.73 14.0597 181.786 14.2685 181.896 14.4446C182.01 14.6207 182.165 14.7585 182.361 14.858C182.56 14.9545 182.787 15.0028 183.043 15.0028C183.321 15.0028 183.557 14.9446 183.75 14.8281C183.946 14.7088 184.095 14.5341 184.197 14.304C184.3 14.0739 184.351 13.7926 184.351 13.4602V7.27273ZM189.382 16.1449C188.968 16.1449 188.593 16.0682 188.257 15.9148C187.922 15.7585 187.657 15.5327 187.461 15.2372C187.267 14.9418 187.171 14.5795 187.171 14.1506C187.171 13.7812 187.242 13.4773 187.384 13.2386C187.526 13 187.718 12.8111 187.959 12.6719C188.201 12.5327 188.471 12.4276 188.769 12.3565C189.067 12.2855 189.371 12.2315 189.681 12.1946C190.073 12.1491 190.391 12.1122 190.635 12.0838C190.88 12.0526 191.057 12.0028 191.168 11.9347C191.279 11.8665 191.334 11.7557 191.334 11.6023V11.5724C191.334 11.2003 191.229 10.9119 191.019 10.7074C190.811 10.5028 190.502 10.4006 190.09 10.4006C189.661 10.4006 189.323 10.4957 189.076 10.6861C188.831 10.8736 188.662 11.0824 188.569 11.3125L187.371 11.0398C187.513 10.642 187.721 10.321 187.993 10.0767C188.269 9.82955 188.586 9.65057 188.944 9.53977C189.301 9.42614 189.678 9.36932 190.073 9.36932C190.334 9.36932 190.611 9.40057 190.904 9.46307C191.199 9.52273 191.475 9.63352 191.73 9.79545C191.989 9.95739 192.201 10.1889 192.365 10.4901C192.53 10.7884 192.613 11.1761 192.613 11.6534V16H191.368V15.1051H191.317C191.235 15.2699 191.111 15.4318 190.946 15.5909C190.782 15.75 190.57 15.8821 190.311 15.9872C190.053 16.0923 189.743 16.1449 189.382 16.1449ZM189.659 15.1222C190.012 15.1222 190.313 15.0526 190.563 14.9134C190.816 14.7741 191.007 14.5923 191.138 14.3679C191.272 14.1406 191.338 13.8977 191.338 13.6392V12.7955C191.293 12.8409 191.205 12.8835 191.074 12.9233C190.946 12.9602 190.8 12.9929 190.635 13.0213C190.471 13.0469 190.31 13.071 190.154 13.0938C189.998 13.1136 189.867 13.1307 189.762 13.1449C189.515 13.1761 189.289 13.2287 189.084 13.3026C188.882 13.3764 188.721 13.483 188.598 13.6222C188.479 13.7585 188.419 13.9403 188.419 14.1676C188.419 14.483 188.536 14.7216 188.769 14.8835C189.002 15.0426 189.299 15.1222 189.659 15.1222ZM199.675 9.45455L197.301 16H195.938L193.56 9.45455H194.928L196.585 14.4915H196.653L198.307 9.45455H199.675ZM202.589 16.1449C202.175 16.1449 201.8 16.0682 201.464 15.9148C201.129 15.7585 200.864 15.5327 200.668 15.2372C200.474 14.9418 200.378 14.5795 200.378 14.1506C200.378 13.7812 200.449 13.4773 200.591 13.2386C200.733 13 200.925 12.8111 201.166 12.6719C201.408 12.5327 201.678 12.4276 201.976 12.3565C202.274 12.2855 202.578 12.2315 202.888 12.1946C203.28 12.1491 203.598 12.1122 203.842 12.0838C204.087 12.0526 204.264 12.0028 204.375 11.9347C204.486 11.8665 204.541 11.7557 204.541 11.6023V11.5724C204.541 11.2003 204.436 10.9119 204.226 10.7074C204.018 10.5028 203.709 10.4006 203.297 10.4006C202.868 10.4006 202.53 10.4957 202.283 10.6861C202.038 10.8736 201.869 11.0824 201.776 11.3125L200.578 11.0398C200.72 10.642 200.928 10.321 201.2 10.0767C201.476 9.82955 201.793 9.65057 202.151 9.53977C202.509 9.42614 202.885 9.36932 203.28 9.36932C203.541 9.36932 203.818 9.40057 204.111 9.46307C204.406 9.52273 204.682 9.63352 204.938 9.79545C205.196 9.95739 205.408 10.1889 205.572 10.4901C205.737 10.7884 205.82 11.1761 205.82 11.6534V16H204.575V15.1051H204.524C204.442 15.2699 204.318 15.4318 204.153 15.5909C203.989 15.75 203.777 15.8821 203.518 15.9872C203.26 16.0923 202.95 16.1449 202.589 16.1449ZM202.866 15.1222C203.219 15.1222 203.52 15.0526 203.77 14.9134C204.023 14.7741 204.214 14.5923 204.345 14.3679C204.479 14.1406 204.545 13.8977 204.545 13.6392V12.7955C204.5 12.8409 204.412 12.8835 204.281 12.9233C204.153 12.9602 204.007 12.9929 203.842 13.0213C203.678 13.0469 203.517 13.071 203.361 13.0938C203.205 13.1136 203.074 13.1307 202.969 13.1449C202.722 13.1761 202.496 13.2287 202.291 13.3026C202.089 13.3764 201.928 13.483 201.805 13.6222C201.686 13.7585 201.626 13.9403 201.626 14.1676C201.626 14.483 201.743 14.7216 201.976 14.8835C202.209 15.0426 202.506 15.1222 202.866 15.1222ZM212.379 9.56534C212.333 9.16193 212.146 8.84943 211.816 8.62784C211.487 8.40341 211.072 8.29119 210.572 8.29119C210.214 8.29119 209.904 8.34801 209.643 8.46165C209.382 8.57244 209.179 8.72585 209.034 8.92188C208.892 9.11506 208.821 9.33523 208.821 9.58239C208.821 9.78977 208.869 9.96875 208.966 10.1193C209.065 10.2699 209.194 10.3963 209.353 10.4986C209.515 10.598 209.689 10.6818 209.873 10.75C210.058 10.8153 210.235 10.8693 210.406 10.9119L211.258 11.1335C211.537 11.2017 211.822 11.294 212.115 11.4105C212.407 11.527 212.679 11.6804 212.929 11.8707C213.179 12.0611 213.38 12.2969 213.534 12.5781C213.69 12.8594 213.768 13.196 213.768 13.5881C213.768 14.0824 213.64 14.5213 213.385 14.9048C213.132 15.2884 212.764 15.5909 212.281 15.8125C211.801 16.0341 211.22 16.1449 210.538 16.1449C209.885 16.1449 209.319 16.0412 208.842 15.8338C208.365 15.6264 207.991 15.3324 207.721 14.9517C207.451 14.5682 207.302 14.1136 207.274 13.5881H208.595C208.62 13.9034 208.723 14.1662 208.902 14.3764C209.083 14.5838 209.315 14.7386 209.596 14.8409C209.88 14.9403 210.191 14.9901 210.529 14.9901C210.902 14.9901 211.233 14.9318 211.522 14.8153C211.815 14.696 212.045 14.5312 212.213 14.321C212.38 14.108 212.464 13.8594 212.464 13.5753C212.464 13.3168 212.39 13.1051 212.243 12.9403C212.098 12.7756 211.9 12.6392 211.65 12.5312C211.403 12.4233 211.123 12.3281 210.811 12.2457L209.779 11.9645C209.081 11.7741 208.527 11.4943 208.118 11.125C207.711 10.7557 207.508 10.267 207.508 9.65909C207.508 9.15625 207.645 8.71733 207.917 8.34233C208.19 7.96733 208.559 7.67614 209.025 7.46875C209.491 7.25852 210.017 7.15341 210.602 7.15341C211.193 7.15341 211.714 7.2571 212.166 7.46449C212.62 7.67188 212.978 7.95739 213.24 8.32102C213.501 8.68182 213.637 9.09659 213.649 9.56534H212.379ZM217.996 16.1321C217.363 16.1321 216.817 15.9886 216.36 15.7017C215.906 15.4119 215.556 15.0128 215.312 14.5043C215.067 13.9957 214.945 13.4134 214.945 12.7571C214.945 12.0923 215.07 11.5057 215.32 10.9972C215.57 10.4858 215.923 10.0866 216.377 9.79972C216.832 9.51278 217.367 9.36932 217.984 9.36932C218.481 9.36932 218.924 9.46165 219.313 9.64631C219.702 9.82812 220.016 10.0838 220.255 10.4134C220.496 10.7429 220.64 11.1278 220.685 11.5682H219.445C219.377 11.2614 219.221 10.9972 218.977 10.7756C218.735 10.554 218.411 10.4432 218.005 10.4432C217.65 10.4432 217.339 10.5369 217.072 10.7244C216.808 10.9091 216.602 11.1733 216.454 11.517C216.306 11.858 216.232 12.2614 216.232 12.7273C216.232 13.2045 216.305 13.6165 216.45 13.9631C216.594 14.3097 216.799 14.5781 217.063 14.7685C217.33 14.9588 217.644 15.054 218.005 15.054C218.246 15.054 218.465 15.0099 218.661 14.9219C218.86 14.831 219.026 14.7017 219.16 14.5341C219.296 14.3665 219.391 14.1648 219.445 13.929H220.685C220.64 14.3523 220.502 14.7301 220.272 15.0625C220.042 15.3949 219.734 15.6562 219.347 15.8466C218.964 16.0369 218.513 16.1321 217.996 16.1321ZM222.048 16V9.45455H223.279V10.4943H223.348C223.467 10.142 223.677 9.86506 223.978 9.66335C224.282 9.45881 224.626 9.35653 225.01 9.35653C225.089 9.35653 225.183 9.35937 225.291 9.36506C225.402 9.37074 225.488 9.37784 225.551 9.38636V10.6051C225.5 10.5909 225.409 10.5753 225.278 10.5582C225.147 10.5384 225.017 10.5284 224.886 10.5284C224.585 10.5284 224.316 10.5923 224.081 10.7202C223.848 10.8452 223.663 11.0199 223.527 11.2443C223.39 11.4659 223.322 11.7187 223.322 12.0028V16H222.048ZM226.653 16V9.45455H227.928V16H226.653ZM227.297 8.4446C227.075 8.4446 226.885 8.37074 226.726 8.22301C226.57 8.07244 226.491 7.89347 226.491 7.68608C226.491 7.47585 226.57 7.29687 226.726 7.14915C226.885 6.99858 227.075 6.9233 227.297 6.9233C227.518 6.9233 227.707 6.99858 227.864 7.14915C228.023 7.29687 228.102 7.47585 228.102 7.68608C228.102 7.89347 228.023 8.07244 227.864 8.22301C227.707 8.37074 227.518 8.4446 227.297 8.4446ZM229.642 18.4545V9.45455H230.886V10.5156H230.993C231.066 10.3793 231.173 10.2216 231.312 10.0426C231.451 9.86364 231.645 9.70739 231.892 9.57386C232.139 9.4375 232.466 9.36932 232.872 9.36932C233.4 9.36932 233.872 9.50284 234.287 9.76989C234.701 10.0369 235.027 10.4219 235.262 10.9247C235.501 11.4276 235.62 12.0327 235.62 12.7401C235.62 13.4474 235.502 14.054 235.267 14.5597C235.031 15.0625 234.707 15.4503 234.295 15.723C233.883 15.9929 233.413 16.1278 232.885 16.1278C232.487 16.1278 232.162 16.0611 231.909 15.9276C231.659 15.794 231.463 15.6378 231.321 15.4588C231.179 15.2798 231.069 15.1207 230.993 14.9815H230.916V18.4545H229.642ZM230.89 12.7273C230.89 13.1875 230.957 13.5909 231.091 13.9375C231.224 14.2841 231.417 14.5554 231.67 14.7514C231.923 14.9446 232.233 15.0412 232.599 15.0412C232.98 15.0412 233.298 14.9403 233.554 14.7386C233.809 14.5341 234.002 14.2571 234.133 13.9077C234.267 13.5582 234.333 13.1648 234.333 12.7273C234.333 12.2955 234.268 11.9077 234.137 11.5639C234.01 11.2202 233.816 10.9489 233.558 10.75C233.302 10.5511 232.983 10.4517 232.599 10.4517C232.23 10.4517 231.917 10.5469 231.662 10.7372C231.409 10.9276 231.217 11.1932 231.086 11.5341C230.956 11.875 230.89 12.2727 230.89 12.7273ZM240.103 9.45455V10.4773H236.528V9.45455H240.103ZM237.487 7.88636H238.761V14.0781C238.761 14.3253 238.798 14.5114 238.872 14.6364C238.946 14.7585 239.041 14.8423 239.157 14.8878C239.277 14.9304 239.406 14.9517 239.545 14.9517C239.647 14.9517 239.737 14.9446 239.814 14.9304C239.89 14.9162 239.95 14.9048 239.993 14.8963L240.223 15.9489C240.149 15.9773 240.044 16.0057 239.907 16.0341C239.771 16.0653 239.6 16.0824 239.396 16.0852C239.061 16.0909 238.748 16.0312 238.458 15.9062C238.169 15.7812 237.934 15.5881 237.755 15.3267C237.576 15.0653 237.487 14.7372 237.487 14.3423V7.88636Z" fill="white"/>
<path d="M263.627 12.82C264 12.9756 264.358 13.1933 264.7 13.4733C265.042 13.7222 265.322 14.0178 265.54 14.36C266.038 15.0756 266.287 15.8689 266.287 16.74V17.1133H265.54V16.74C265.54 16.2733 265.447 15.8378 265.26 15.4333C265.104 14.9978 264.856 14.6244 264.513 14.3133C264.202 14.0022 263.829 13.7533 263.393 13.5667C262.989 13.38 262.553 13.2867 262.087 13.2867C261.62 13.2867 261.169 13.38 260.733 13.5667C260.329 13.7222 259.971 13.9711 259.66 14.3133C259.349 14.6244 259.1 14.9978 258.913 15.4333C258.727 15.8378 258.633 16.2733 258.633 16.74V17.1133H257.887V16.74C257.887 15.8689 258.136 15.0756 258.633 14.36C259.131 13.6444 259.769 13.1311 260.547 12.82C260.391 12.6956 260.236 12.5556 260.08 12.4C259.924 12.2444 259.8 12.0733 259.707 11.8867C259.613 11.6689 259.536 11.4667 259.473 11.28C259.442 11.0622 259.427 10.8444 259.427 10.6267C259.427 10.2533 259.489 9.89556 259.613 9.55333C259.893 8.9 260.376 8.43333 261.06 8.15333C261.371 7.99778 261.713 7.92 262.087 7.92C262.46 7.92 262.802 7.99778 263.113 8.15333C263.798 8.43333 264.28 8.9 264.56 9.55333C264.778 10.1133 264.824 10.6889 264.7 11.28C264.638 11.4667 264.544 11.6533 264.42 11.84C264.327 12.0267 264.218 12.2133 264.093 12.4C263.969 12.5556 263.813 12.6956 263.627 12.82ZM262.087 12.54C262.336 12.54 262.584 12.4933 262.833 12.4C263.3 12.1822 263.642 11.84 263.86 11.3733C263.953 11.1244 264 10.8756 264 10.6267C264 10.0978 263.813 9.64667 263.44 9.27333C263.253 9.08667 263.036 8.94667 262.787 8.85333C262.569 8.76 262.336 8.71333 262.087 8.71333C261.838 8.71333 261.589 8.76 261.34 8.85333C260.873 9.07111 260.531 9.41333 260.313 9.88C260.22 10.0978 260.173 10.3467 260.173 10.6267C260.173 10.8756 260.22 11.1244 260.313 11.3733C260.407 11.5911 260.547 11.7933 260.733 11.98C261.107 12.3533 261.558 12.54 262.087 12.54ZM270.113 4.88667V11H268.573L266.287 13.2867V11H265.54V10.2533H267.08V11.4667L268.293 10.2533H269.367V5.63333H261.713V7.03333L261.34 7.08C261.184 7.11111 261.044 7.14222 260.92 7.17333V4.88667H270.113Z" fill="white"/>
<path d="M298.713 13.24C298.496 12.5867 298.387 11.9022 298.387 11.1867V9.41333C298.387 8.85333 298.293 8.32444 298.107 7.82667C297.92 7.29778 297.64 6.83111 297.267 6.42667C296.893 5.99111 296.458 5.64889 295.96 5.4C295.493 5.12 294.98 4.94889 294.42 4.88667C293.798 4.82444 293.191 4.90222 292.6 5.12C292.009 5.30667 291.48 5.61778 291.013 6.05333C290.578 6.45778 290.236 6.94 289.987 7.5C289.738 8.06 289.613 8.65111 289.613 9.27333V11.1867C289.613 11.9022 289.504 12.5867 289.287 13.24L288.773 14.78L289.147 15.3867H292.227C292.227 15.8533 292.398 16.2578 292.74 16.6C293.082 16.9422 293.487 17.1133 293.953 17.1133C294.451 17.1133 294.871 16.9422 295.213 16.6C295.556 16.2578 295.727 15.8533 295.727 15.3867H298.807L299.227 14.78L298.713 13.24ZM294.607 15.9933C294.42 16.18 294.202 16.2733 293.953 16.2733C293.736 16.2733 293.533 16.1956 293.347 16.04C293.191 15.8533 293.113 15.6356 293.113 15.3867H294.84C294.871 15.6356 294.793 15.8378 294.607 15.9933ZM289.753 14.5L290.08 13.52C290.36 12.7733 290.5 11.9956 290.5 11.1867V9.27333C290.5 8.77556 290.593 8.29333 290.78 7.82667C290.998 7.36 291.278 6.97111 291.62 6.66C291.993 6.31778 292.413 6.06889 292.88 5.91333C293.378 5.75778 293.86 5.71111 294.327 5.77333C295.26 5.89778 296.022 6.30222 296.613 6.98667C296.893 7.32889 297.111 7.71778 297.267 8.15333C297.422 8.55778 297.5 8.97778 297.5 9.41333V11.1867C297.5 11.9956 297.624 12.7889 297.873 13.5667L298.2 14.5H289.753Z" fill="white"/>
</svg>
